# xmcd CD database file
# Copyright (C) 1993-1998 Ti Kan
# 
# Track frame offsets:
#     150
#     10442
#     24507
#     43835
#     56567
#     72820
#     86847
#     98937
#     111865
#     124087
# 
# Disc length: 1856 seconds
# 
# Revision: 1
# Processed by: cddbd v1.4b41PL1 Copyright (c) Steve Scherf et al.
# Submitted via: DiscPlay 4.0.4
# 
DISCID=86073e0a
DTITLE=Eisan - After Forty Years
DYEAR=1900
DGENRE=
TTITLE0=She Do Voo Doo
TTITLE1=Presence Of Love
TTITLE2=After Forty Years
TTITLE3=Money To Burn
TTITLE4=It's Over
TTITLE5=Sad Sad Day
TTITLE6=Nothing Left To Hide
TTITLE7=Stand Up
TTITLE8=If It looks Good
TTITLE9=I Forgot To Say I Love You
EXTD=Pure Miracle Music\nRR#1 Hubbards, Nova Scotia, Canada\nB0J 1T0\n(902) 
EXTD=857-9977
EXTT0=
EXTT1=
EXTT2=
EXTT3=
EXTT4=
EXTT5=
EXTT6=
EXTT7=
EXTT8=
EXTT9=
PLAYORDER=
